HIERARCHY
ROOT Hips
{
	OFFSET 0.000000 0.000000 0.000000
	CHANNELS 6 Xposition Yposition Zposition Zrotation Yrotation Xrotation 
	JOINT LHipJoint
	{
		OFFSET 0.000000 0.000000 0.000000
		CHANNELS 3 Zrotation Yrotation Xrotation
		JOINT LeftUpLeg
		{
			OFFSET 1.363060 -1.794630 0.839290
			CHANNELS 3 Zrotation Yrotation Xrotation
			JOINT LeftLeg
			{
				OFFSET 2.448110 -6.726130 0.000000
				CHANNELS 3 Zrotation Yrotation Xrotation
				JOINT LeftFoot
				{
					OFFSET 2.562200 -7.039590 0.000000
					CHANNELS 3 Zrotation Yrotation Xrotation
					JOINT LeftToeBase
					{
						OFFSET 0.157640 -0.433110 2.322550
						CHANNELS 3 Zrotation Yrotation Xrotation
						End Site
						{
							OFFSET 0.000000 0.000000 0.000000
						}
					}
				}
			}
		}
	}
	JOINT RHipJoint
	{
		OFFSET 0.000000 0.000000 0.000000
		CHANNELS 3 Zrotation Yrotation Xrotation
		JOINT RightUpLeg
		{
			OFFSET -1.305520 -1.794630 0.839290
			CHANNELS 3 Zrotation Yrotation Xrotation
			JOINT RightLeg
			{
				OFFSET -2.542530 -6.985550 0.000000
				CHANNELS 3 Zrotation Yrotation Xrotation
				JOINT RightFoot
				{
					OFFSET -2.568260 -7.056230 0.000000
					CHANNELS 3 Zrotation Yrotation Xrotation
					JOINT RightToeBase
					{
						OFFSET -0.164730 -0.452590 2.363150
						CHANNELS 3 Zrotation Yrotation Xrotation
						End Site
						{
							OFFSET 0.000000 0.000000 0.000000
						}
					}
				}
			}
		}
	}
	JOINT LowerBack
	{
		OFFSET 0.000000 0.000000 0.000000
		CHANNELS 3 Zrotation Yrotation Xrotation
		JOINT Spine
		{
			OFFSET 0.028270 2.035590 -0.193380
			CHANNELS 3 Zrotation Yrotation Xrotation
			JOINT Spine1
			{
				OFFSET 0.056720 2.048850 -0.042750
				CHANNELS 3 Zrotation Yrotation Xrotation
				JOINT Neck
				{
					OFFSET 0.000000 0.000000 0.000000
					CHANNELS 3 Zrotation Yrotation Xrotation
					JOINT Neck1
					{
						OFFSET -0.054170 1.746240 0.172020
						CHANNELS 3 Zrotation Yrotation Xrotation
						JOINT Head
						{
							OFFSET 0.104070 1.761360 -0.123970
							CHANNELS 3 Zrotation Yrotation Xrotation
							End Site
							{
								OFFSET 0.000000 0.000000 0.000000
							}
						}
					}
				}
				JOINT LeftShoulder
				{
					OFFSET 0.000000 0.000000 0.000000
					CHANNELS 3 Zrotation Yrotation Xrotation
					JOINT LeftArm
					{
						OFFSET 3.362410 1.200890 -0.311210
						CHANNELS 3 Zrotation Yrotation Xrotation
						JOINT LeftForeArm
						{
							OFFSET 4.983000 -0.000000 -0.000000
							CHANNELS 3 Zrotation Yrotation Xrotation
							JOINT LeftHand
							{
								OFFSET 3.483560 -0.000000 -0.000000
								CHANNELS 3 Zrotation Yrotation Xrotation
								JOINT LeftFingerBase
								{
									OFFSET 0.000000 0.000000 0.000000
									CHANNELS 3 Zrotation Yrotation Xrotation
									JOINT LeftHandIndex1
									{
										OFFSET 0.715260 -0.000000 -0.000000
										CHANNELS 3 Zrotation Yrotation Xrotation
										End Site
										{
											OFFSET 0.000000 0.000000 0.000000
										}
									}
								}
								JOINT LThumb
								{
									OFFSET 0.000000 0.000000 0.000000
									CHANNELS 3 Zrotation Yrotation Xrotation
									End Site
									{
										OFFSET 0.000000 0.000000 0.000000
									}
								}
							}
						}
					}
				}
				JOINT RightShoulder
				{
					OFFSET 0.000000 0.000000 0.000000
					CHANNELS 3 Zrotation Yrotation Xrotation
					JOINT RightArm
					{
						OFFSET -3.136600 1.374050 -0.404650
						CHANNELS 3 Zrotation Yrotation Xrotation
						JOINT RightForeArm
						{
							OFFSET -5.241900 -0.000000 -0.000000
							CHANNELS 3 Zrotation Yrotation Xrotation
							JOINT RightHand
							{
								OFFSET -3.444170 -0.000000 -0.000000
								CHANNELS 3 Zrotation Yrotation Xrotation
								JOINT RightFingerBase
								{
									OFFSET 0.000000 0.000000 0.000000
									CHANNELS 3 Zrotation Yrotation Xrotation
									JOINT RightHandIndex1
									{
										OFFSET -0.622530 -0.000000 -0.000000
										CHANNELS 3 Zrotation Yrotation Xrotation
										End Site
										{
											OFFSET 0.000000 0.000000 0.000000
										}
									}
								}
								JOINT RThumb
								{
									OFFSET 0.000000 0.000000 0.000000
									CHANNELS 3 Zrotation Yrotation Xrotation
									End Site
									{
										OFFSET 0.000000 0.000000 0.000000
									}
								}
							}
						}
					}
				}
			}
		}
	}
}
MOTION
Frames: 12
Frame Time: 0.008333
50.759446 17.194720 -4.407399 -133.455085 85.365252 -134.940201 0.688401 0.917373 0.139939 -13.763983 4.046641 2.325417 -0.734716 4.322977 12.580154 -0.804862 5.179467 -0.674556 0.194000 -2.836100 -7.822800 0.178731 0.399984 -0.144686 22.599486 1.393538 -4.741698 -1.069600 -10.125197 28.097544 1.310499 -8.638247 -14.121842 -0.200900 -2.886500 7.962900 3.545278 -0.346439 -0.111206 1.165662 -0.317155 -1.074415 -2.891706 -0.105841 3.960849 -0.792279 1.322108 -5.859686 6.269231 0.899806 3.723603 0.050100 0.471400 -0.064700 -5.551310 -4.964202 1.318646 -79.534599 -2.467017 17.960582 6.569688 -16.043307 -1.889149 -1.653342 -1.451443 -15.084079 17.469806 12.093495 4.529600 -7.125000 0.000000 0.000000 -7.198300 43.587300 0.252400 7.273397 4.291860 0.690003 79.401221 -2.076692 17.514099 -9.106121 20.296904 -2.691025 1.580178 0.256246 4.980052 -19.409966 -8.882908 3.509100 7.125000 0.000000 0.000000 5.229100 -39.778900 0.675100 
50.759551 17.195141 -4.406133 -133.623320 85.366852 -135.123696 0.689977 0.916810 0.138864 -13.771246 4.049517 2.341290 -0.735334 4.321160 12.577394 -0.799442 5.159793 -0.673411 0.189500 -2.803300 -7.731600 0.178620 0.397854 -0.143692 22.592831 1.391200 -4.729775 -1.070876 -10.126897 28.103110 1.311287 -8.642794 -14.129182 -0.202000 -2.893700 7.982900 3.535793 -0.349828 -0.095382 1.164648 -0.320097 -1.073480 -2.894919 -0.107775 3.957375 -0.784085 1.307285 -5.854827 6.266580 0.879726 3.722784 0.047000 0.461200 -0.065500 -5.551382 -4.964945 1.318947 -79.534011 -2.470750 17.911848 6.568160 -16.039563 -1.889390 -1.655128 -1.450519 -15.070016 17.487362 12.092536 4.533600 -7.125000 0.000000 0.000000 -7.181000 43.587300 0.251700 7.273490 4.292324 0.690817 79.413630 -2.064038 17.513435 -9.087366 20.272611 -2.684533 1.582207 0.255572 5.002734 -19.427246 -8.898678 3.518500 7.125000 0.000000 0.000000 5.214500 -39.797000 0.670900 
50.757758 17.194825 -4.404867 -133.462387 85.354963 -134.965395 0.689900 0.917974 0.138758 -13.749344 4.027382 2.339624 -0.733736 4.326667 12.590826 -0.803124 5.173213 -0.690176 0.188200 -2.794200 -7.706200 0.177628 0.400423 -0.146420 22.624552 1.411545 -4.720083 -1.069725 -10.125481 28.098612 1.319995 -8.674857 -14.141147 -0.203400 -2.903800 8.011000 3.547265 -0.351964 -0.085968 1.167639 -0.323542 -1.069924 -2.884658 -0.108916 3.962253 -0.793324 1.304472 -5.837667 6.279168 0.875370 3.707882 0.056500 0.458600 -0.080000 -5.552098 -4.966160 1.322843 -79.545572 -2.518311 17.799037 6.548347 -16.007932 -1.884655 -1.657223 -1.448839 -15.025177 17.489144 12.103368 4.537700 -7.125000 0.000000 0.000000 -7.180600 43.598000 0.249800 7.273481 4.291305 0.692906 79.426580 -2.049322 17.474717 -9.085143 20.266693 -2.683865 1.582297 0.247441 5.062471 -19.476042 -8.835908 3.501400 7.125000 0.000000 0.000000 5.162400 -39.727600 0.672900 
50.756914 17.194825 -4.403813 -133.795623 85.323258 -135.314799 0.691983 0.916111 0.136662 -13.736621 4.027219 2.342016 -0.733906 4.328874 12.599787 -0.789897 5.125526 -0.667682 0.186400 -2.780800 -7.669000 0.177952 0.397785 -0.145609 22.633867 1.392224 -4.709325 -1.069523 -10.125394 28.097961 1.318709 -8.676790 -14.165213 -0.203800 -2.906800 8.019400 3.552537 -0.363545 -0.073029 1.167577 -0.337761 -1.067375 -2.893597 -0.115928 3.966856 -0.788528 1.309930 -5.832884 6.290158 0.882048 3.711117 0.062800 0.462500 -0.080200 -5.558012 -4.966149 1.325249 -79.525903 -2.530910 17.663745 6.511533 -15.949015 -1.863848 -1.639391 -1.404079 -14.815503 17.271126 11.683354 4.324600 -7.125000 0.000000 0.000000 -7.317600 43.106700 0.343900 7.272922 4.290285 0.693331 79.441102 -2.044137 17.495513 -9.074373 20.254026 -2.678865 1.580267 0.230524 5.026395 -19.571717 -8.635505 3.436000 7.125000 0.000000 0.000000 5.051000 -39.504100 0.686200 
50.755965 17.194509 -4.402758 -133.952648 85.305412 -135.485191 0.693421 0.915067 0.135015 -13.727884 4.019813 2.345146 -0.732873 4.333824 12.614360 -0.784284 5.105027 -0.665487 0.184800 -2.769100 -7.636600 0.177733 0.396544 -0.145601 22.644476 1.383973 -4.696658 -1.069052 -10.124287 28.095028 1.320933 -8.687637 -14.179759 -0.204600 -2.912600 8.035500 3.556773 -0.369237 -0.058505 1.168161 -0.344469 -1.064528 -2.895305 -0.119153 3.971445 -0.787187 1.311605 -5.828860 6.298891 0.883749 3.710809 0.068000 0.463700 -0.082100 -5.560653 -4.966672 1.327525 -79.521439 -2.556891 17.570152 6.492809 -15.918267 -1.855896 -1.633847 -1.390617 -14.736686 17.194761 11.565159 4.261500 -7.125000 0.000000 0.000000 -7.370500 42.966900 0.371900 7.272648 4.289899 0.694087 79.452316 -2.037731 17.497473 -9.069439 20.247266 -2.676444 1.579179 0.221906 5.028677 -19.617248 -8.540734 3.404800 7.125000 0.000000 0.000000 4.998500 -39.398100 0.692000 
50.755016 17.194192 -4.401914 -134.178680 85.286134 -135.726531 0.694792 0.914076 0.133445 -13.722622 4.015676 2.355017 -0.733159 4.333887 12.616353 -0.778753 5.085110 -0.653958 0.183900 -2.761700 -7.616100 0.177727 0.394525 -0.145080 22.649670 1.367445 -4.686371 -1.069034 -10.123865 28.093927 1.322204 -8.695149 -14.192612 -0.205100 -2.916100 8.045200 3.559085 -0.375177 -0.042148 1.168442 -0.351132 -1.062072 -2.897478 -0.122610 3.974057 -0.785838 1.315162 -5.826406 6.307615 0.888075 3.713180 0.073000 0.466300 -0.081700 -5.563016 -4.967573 1.329514 -79.517812 -2.582781 17.487738 6.477534 -15.892657 -1.849809 -1.629261 -1.382387 -14.682018 17.129444 11.494268 4.219100 -7.125000 0.000000 0.000000 -7.421000 42.881600 0.390200 7.271942 4.289899 0.694346 79.462876 -2.037258 17.498514 -9.068141 20.245320 -2.675507 1.577731 0.217026 5.030094 -19.633765 -8.482860 3.383700 7.125000 0.000000 0.000000 4.977100 -39.332900 0.697100 
50.754277 17.193981 -4.401176 -134.464588 85.268629 -136.024825 0.696124 0.912592 0.131665 -13.722880 4.014381 2.365482 -0.733696 4.332772 12.615389 -0.773512 5.065703 -0.638879 0.183400 -2.758400 -7.606800 0.177844 0.391904 -0.144119 22.647492 1.345720 -4.678913 -1.069493 -10.124061 28.094503 1.322310 -8.698183 -14.203566 -0.205500 -2.918900 8.053000 3.557716 -0.380069 -0.026501 1.168264 -0.356327 -1.059818 -2.899502 -0.125476 3.977808 -0.785153 1.318701 -5.829684 6.316099 0.892483 3.718612 0.078000 0.469100 -0.077900 -5.565186 -4.968586 1.331140 -79.514927 -2.611395 17.414713 6.464871 -15.871053 -1.845317 -1.626232 -1.378279 -14.650833 17.082406 11.461032 4.195200 -7.125000 0.000000 0.000000 -7.460200 42.840100 0.400000 7.271077 4.290260 0.694174 79.471681 -2.039625 17.504367 -9.069510 20.247171 -2.675538 1.576487 0.218961 5.026071 -19.606749 -8.496153 3.384500 7.125000 0.000000 0.000000 5.003600 -39.346800 0.699100 
50.753750 17.193665 -4.400754 -134.795352 85.254557 -136.369052 0.697369 0.910865 0.129785 -13.729935 4.016825 2.379521 -0.734856 4.329175 12.607830 -0.768960 5.048991 -0.620975 0.183500 -2.759300 -7.609400 0.178088 0.388612 -0.142639 22.636786 1.317479 -4.674165 -1.070289 -10.124635 28.096573 1.320653 -8.694236 -14.209753 -0.205800 -2.921100 8.059300 3.552549 -0.384233 -0.010635 1.167559 -0.360071 -1.057892 -2.901670 -0.127964 3.980761 -0.785087 1.322484 -5.835320 6.324125 0.897453 3.726185 0.082800 0.472400 -0.072100 -5.566848 -4.969773 1.332304 -79.514653 -2.639243 17.352135 6.458017 -15.857763 -1.843943 -1.625557 -1.379814 -14.650048 17.064289 11.480124 4.197800 -7.125000 0.000000 0.000000 -7.480800 42.859800 0.397500 7.269794 4.290902 0.693675 79.479548 -2.045477 17.507537 -9.072962 20.251865 -2.676458 1.575385 0.225388 5.024079 -19.550404 -8.558362 3.400300 7.125000 0.000000 0.000000 5.062500 -39.414900 0.698900 
50.753223 17.193454 -4.400437 -135.153048 85.239773 -136.739301 0.698467 0.909053 0.127961 -13.738268 4.021262 2.394224 -0.736430 4.323745 12.595391 -0.764147 5.031426 -0.599968 0.183900 -2.762100 -7.617100 0.178423 0.385052 -0.140942 22.622855 1.285231 -4.672296 -1.071321 -10.125452 28.099354 1.318099 -8.686701 -14.213008 -0.206100 -2.923000 8.064600 3.548067 -0.388005 0.003915 1.166578 -0.363321 -1.056243 -2.905625 -0.130246 3.983607 -0.785845 1.325180 -5.842152 6.332151 0.901150 3.734353 0.087900 0.475000 -0.065700 -5.569247 -4.971661 1.334311 -79.517088 -2.684323 17.236988 6.434340 -15.819317 -1.837266 -1.625743 -1.376861 -14.600372 17.041358 11.474294 4.189700 -7.125000 0.000000 0.000000 -7.501100 42.850000 0.400400 7.268405 4.292132 0.692830 79.486948 -2.053830 17.512062 -9.078334 20.259336 -2.678290 1.574863 0.237016 5.016496 -19.466605 -8.677422 3.434500 7.125000 0.000000 0.000000 5.153500 -39.546300 0.694800 
50.753012 17.193243 -4.400437 -135.503586 85.228733 -137.100565 0.699436 0.907195 0.126177 -13.751025 4.027018 2.410313 -0.738165 4.317629 12.581123 -0.760874 5.019485 -0.581374 0.185200 -2.771900 -7.644300 0.178789 0.381302 -0.139007 22.603588 1.251575 -4.671927 -1.072383 -10.126301 28.102232 1.313940 -8.672388 -14.212323 -0.206600 -2.926500 8.074100 3.543148 -0.390738 0.016271 1.165275 -0.365232 -1.054922 -2.911037 -0.131887 3.984749 -0.784498 1.329502 -5.844620 6.337793 0.906758 3.742035 0.091100 0.478400 -0.060700 -5.570954 -4.973225 1.335924 -79.521719 -2.720043 17.123637 6.416786 -15.789338 -1.832283 -1.625947 -1.372581 -14.556591 17.026639 11.452449 4.177700 -7.125000 0.000000 0.000000 -7.511000 42.823000 0.406000 7.266857 4.292933 0.691990 79.494293 -2.065524 17.516384 -9.084295 20.267893 -2.680628 1.574691 0.247713 5.007604 -19.394765 -8.788233 3.467000 7.125000 0.000000 0.000000 5.232700 -39.668900 0.689700 
50.752801 17.192926 -4.400543 -135.829200 85.217599 -137.435788 0.700360 0.905570 0.124423 -13.762184 4.033102 2.426500 -0.739825 4.311551 12.566786 -0.756824 5.004467 -0.564929 0.186100 -2.778200 -7.661900 0.178973 0.377801 -0.137337 22.586004 1.218894 -4.671133 -1.073329 -10.127036 28.104854 1.309306 -8.656902 -14.211752 -0.207100 -2.930300 8.084600 3.540056 -0.393620 0.026200 1.164203 -0.367501 -1.053291 -2.916755 -0.133597 3.988345 -0.783663 1.334083 -5.847871 6.343115 0.912650 3.749060 0.094200 0.482000 -0.056300 -5.573281 -4.975091 1.338522 -79.528839 -2.772801 16.958763 6.384836 -15.737503 -1.822900 -1.626924 -1.364138 -14.466124 17.007950 11.407850 4.156200 -7.125000 0.000000 0.000000 -7.520300 42.769300 0.416500 7.265841 4.293882 0.691349 79.499122 -2.074174 17.524323 -9.089460 20.275646 -2.682714 1.575132 0.255763 4.994150 -19.349946 -8.872645 3.493300 7.125000 0.000000 0.000000 5.284200 -39.762700 0.684300 
50.752695 17.192610 -4.400648 -136.041804 85.208482 -137.658100 0.701132 0.904891 0.123207 -13.768626 4.040100 2.442407 -0.741209 4.305714 12.552742 -0.754045 4.994160 -0.553324 0.187000 -2.785100 -7.680900 0.178900 0.375175 -0.136204 22.574189 1.191817 -4.668811 -1.074285 -10.127769 28.107323 1.305160 -8.642755 -14.209750 -0.207600 -2.933300 8.093200 3.543968 -0.393972 0.034249 1.163209 -0.366982 -1.051717 -2.924780 -0.133629 3.990757 -0.781593 1.339014 -5.844984 6.347764 0.918848 3.753836 0.096800 0.485400 -0.054900 -5.575794 -4.976882 1.341718 -79.535383 -2.829299 16.773415 6.347222 -15.677465 -1.811842 -1.627991 -1.354520 -14.356383 16.985149 11.357996 4.131700 -7.125000 0.000000 0.000000 -7.532800 42.709200 0.428400 7.265048 4.294699 0.690896 79.503704 -2.083556 17.530329 -9.093705 20.282704 -2.684558 1.575789 0.260588 4.981224 -19.330428 -8.924270 3.510800 7.125000 0.000000 0.000000 5.308400 -39.820200 0.680000 
